<svg width="44" height="44" viewBox="0 0 44 44" fill="none" xmlns="http://www.w3.org/2000/svg">
<g filter="url(#filter0_d_218_8)">
<g filter="url(#filter1_i_218_8)">
<circle cx="22" cy="18" r="18" fill="url(#paint0_linear_218_8)" style=""/>
</g>
<path d="M12.86 12.766C12.92 12.73 12.968 12.712 13.004 12.712C13.052 12.712 13.094 12.724 13.13 12.748C13.178 12.772 13.214 12.802 13.238 12.838C13.262 12.886 13.268 12.958 13.256 13.054V14.134C14.096 13.186 15.062 12.712 16.154 12.712C17.15 12.712 17.93 13.042 18.494 13.702C18.674 13.918 18.812 14.152 18.908 14.404C19.784 13.288 20.822 12.724 22.022 12.712C23.018 12.712 23.798 13.042 24.362 13.702C24.806 14.23 25.034 14.902 25.046 15.718V19.444C25.046 20.368 25.112 20.932 25.244 21.136C25.424 21.376 25.832 21.496 26.468 21.496C26.612 21.52 26.696 21.604 26.72 21.748C26.696 21.904 26.612 21.988 26.468 22H21.05C20.906 21.976 20.822 21.892 20.798 21.748C20.822 21.592 20.906 21.508 21.05 21.496C21.374 21.496 21.584 21.322 21.68 20.974C21.764 20.662 21.806 20.158 21.806 19.462V15.718C21.806 14.914 21.542 14.38 21.014 14.116C20.498 13.864 20 13.966 19.52 14.422C19.352 14.59 19.208 14.776 19.088 14.98C19.136 15.22 19.16 15.466 19.16 15.718V19.444C19.16 20.608 19.328 21.268 19.664 21.424C19.76 21.472 19.868 21.496 19.988 21.496C20.132 21.52 20.216 21.604 20.24 21.748C20.216 21.904 20.132 21.988 19.988 22H15.164C15.02 21.976 14.936 21.892 14.912 21.748C14.936 21.592 15.02 21.508 15.164 21.496C15.488 21.496 15.698 21.322 15.794 20.974C15.878 20.662 15.92 20.158 15.92 19.462V15.718C15.92 14.914 15.656 14.38 15.128 14.116C14.624 13.864 14.132 13.96 13.652 14.404C13.508 14.548 13.376 14.704 13.256 14.872V19.444C13.268 20.68 13.484 21.358 13.904 21.478C13.976 21.49 14.048 21.496 14.12 21.496C14.276 21.52 14.36 21.604 14.372 21.748C14.36 21.904 14.276 21.988 14.12 22H8.612C8.456 21.976 8.372 21.892 8.36 21.748C8.384 21.592 8.468 21.508 8.612 21.496C9.26 21.496 9.662 21.37 9.818 21.118C9.95 20.89 10.016 20.338 10.016 19.462V16.924C10.016 16.36 9.824 15.952 9.44 15.7C9.188 15.556 8.954 15.538 8.738 15.646C8.594 15.718 8.48 15.688 8.396 15.556C8.336 15.412 8.366 15.298 8.486 15.214L12.86 12.766ZM26.5888 12.712H32.3128C32.4688 12.724 32.5528 12.808 32.5648 12.964C32.5528 13.108 32.4688 13.192 32.3128 13.216C31.8208 13.216 31.5808 13.42 31.5928 13.828C31.5928 14.14 31.7128 14.59 31.9528 15.178L33.5908 19.21L34.3648 17.5C34.9768 16.132 35.1448 15.088 34.8688 14.368C34.8208 14.26 34.7428 14.104 34.6348 13.9C34.3948 13.444 34.2748 13.048 34.2748 12.712H37.5148H37.8928C38.0488 12.724 38.1328 12.808 38.1448 12.964C38.1208 13.108 38.0368 13.192 37.8928 13.216H37.7668C37.1428 13.216 36.3748 14.23 35.4628 16.258C35.4148 16.354 35.3728 16.45 35.3368 16.546L33.8788 19.786V19.804L32.1148 23.71C31.8748 24.226 31.5808 24.646 31.2328 24.97C30.7648 25.378 30.2308 25.588 29.6308 25.6H27.0928C27.0448 25.6 27.0028 25.594 26.9668 25.582C26.9068 25.534 26.8648 25.48 26.8408 25.42C26.8288 25.384 26.8228 25.342 26.8228 25.294V22.54C27.3268 22.54 27.7588 22.84 28.1188 23.44C28.1668 23.524 28.2388 23.65 28.3348 23.818C28.6708 24.418 28.9708 24.79 29.2348 24.934C29.4268 25.03 29.6308 25.078 29.8468 25.078C30.2068 25.066 30.5608 24.904 30.9088 24.592C31.0528 24.448 31.1848 24.292 31.3048 24.124C31.5808 23.644 31.6048 23.056 31.3768 22.36C31.3288 22.216 31.2748 22.072 31.2148 21.928L28.1368 14.404C27.8728 13.804 27.5728 13.438 27.2368 13.306C27.0568 13.246 26.8408 13.216 26.5888 13.216C26.4328 13.192 26.3488 13.108 26.3368 12.964C26.3608 12.808 26.4448 12.724 26.5888 12.712Z" fill="#F5EEC2" style="fill:#F5EEC2;fill:color(display-p3 0.9608 0.9333 0.7608);fill-opacity:1;"/>
</g>
<defs>
<filter id="filter0_d_218_8" x="0" y="0" width="44" height="44" filterUnits="userSpaceOnUse" color-interpolation-filters="sRGB">
<feFlood flood-opacity="0" result="BackgroundImageFix"/>
<feColorMatrix in="SourceAlpha" type="matrix" values="0 0 0 0 0 0 0 0 0 0 0 0 0 0 0 0 0 0 127 0" result="hardAlpha"/>
<feOffset dy="4"/>
<feGaussianBlur stdDeviation="2"/>
<feComposite in2="hardAlpha" operator="out"/>
<feColorMatrix type="matrix" values="0 0 0 0 0 0 0 0 0 0 0 0 0 0 0 0 0 0 0.25 0"/>
<feBlend mode="normal" in2="BackgroundImageFix" result="effect1_dropShadow_218_8"/>
<feBlend mode="normal" in="SourceGraphic" in2="effect1_dropShadow_218_8" result="shape"/>
</filter>
<filter id="filter1_i_218_8" x="4" y="0" width="36" height="40" filterUnits="userSpaceOnUse" color-interpolation-filters="sRGB">
<feFlood flood-opacity="0" result="BackgroundImageFix"/>
<feBlend mode="normal" in="SourceGraphic" in2="BackgroundImageFix" result="shape"/>
<feColorMatrix in="SourceAlpha" type="matrix" values="0 0 0 0 0 0 0 0 0 0 0 0 0 0 0 0 0 0 127 0" result="hardAlpha"/>
<feOffset dy="4"/>
<feGaussianBlur stdDeviation="2"/>
<feComposite in2="hardAlpha" operator="arithmetic" k2="-1" k3="1"/>
<feColorMatrix type="matrix" values="0 0 0 0 0.596078 0 0 0 0 0.364706 0 0 0 0 0.380392 0 0 0 1 0"/>
<feBlend mode="normal" in2="shape" result="effect1_innerShadow_218_8"/>
</filter>
<linearGradient id="paint0_linear_218_8" x1="22" y1="0" x2="22" y2="36" gradientUnits="userSpaceOnUse">
<stop stop-color="#B38379" style="stop-color:#B38379;stop-color:color(display-p3 0.7020 0.5137 0.4745);stop-opacity:1;"/>
<stop offset="1" stop-color="#985D61" style="stop-color:#985D61;stop-color:color(display-p3 0.5961 0.3647 0.3804);stop-opacity:1;"/>
</linearGradient>
</defs>
</svg>
