<svg width="44" height="44" viewBox="0 0 44 44" fill="none" xmlns="http://www.w3.org/2000/svg">
<g filter="url(#filter0_d_218_8)">
<g filter="url(#filter1_i_218_8)">
<circle cx="22" cy="18" r="18" fill="url(#paint0_linear_218_8)" style=""/>
</g>
<circle cx="36" cy="22" r="2" fill="#F5EEC2" style="fill:#F5EEC2;fill:color(display-p3 0.9608 0.9333 0.7608);fill-opacity:1;"/>
<path d="M13.48 11.688C13.56 11.64 13.624 11.616 13.672 11.616C13.736 11.616 13.792 11.632 13.84 11.664C13.904 11.696 13.952 11.736 13.984 11.784C14.016 11.848 14.024 11.944 14.008 12.072V13.512C15.128 12.248 16.416 11.616 17.872 11.616C19.2 11.616 20.24 12.056 20.992 12.936C21.232 13.224 21.416 13.536 21.544 13.872C22.712 12.384 24.096 11.632 25.696 11.616C27.024 11.616 28.064 12.056 28.816 12.936C29.408 13.64 29.712 14.536 29.728 15.624V20.592C29.728 21.824 29.816 22.576 29.992 22.848C30.232 23.168 30.776 23.328 31.624 23.328C31.816 23.36 31.928 23.472 31.96 23.664C31.928 23.872 31.816 23.984 31.624 24H24.4C24.208 23.968 24.096 23.856 24.064 23.664C24.096 23.456 24.208 23.344 24.4 23.328C24.832 23.328 25.112 23.096 25.24 22.632C25.352 22.216 25.408 21.544 25.408 20.616V15.624C25.408 14.552 25.056 13.84 24.352 13.488C23.664 13.152 23 13.288 22.36 13.896C22.136 14.12 21.944 14.368 21.784 14.64C21.848 14.96 21.88 15.288 21.88 15.624V20.592C21.88 22.144 22.104 23.024 22.552 23.232C22.68 23.296 22.824 23.328 22.984 23.328C23.176 23.36 23.288 23.472 23.32 23.664C23.288 23.872 23.176 23.984 22.984 24H16.552C16.36 23.968 16.248 23.856 16.216 23.664C16.248 23.456 16.36 23.344 16.552 23.328C16.984 23.328 17.264 23.096 17.392 22.632C17.504 22.216 17.56 21.544 17.56 20.616V15.624C17.56 14.552 17.208 13.84 16.504 13.488C15.832 13.152 15.176 13.28 14.536 13.872C14.344 14.064 14.168 14.272 14.008 14.496V20.592C14.024 22.24 14.312 23.144 14.872 23.304C14.968 23.32 15.064 23.328 15.16 23.328C15.368 23.36 15.48 23.472 15.496 23.664C15.48 23.872 15.368 23.984 15.16 24H7.816C7.608 23.968 7.496 23.856 7.48 23.664C7.512 23.456 7.624 23.344 7.816 23.328C8.68 23.328 9.216 23.16 9.424 22.824C9.6 22.52 9.688 21.784 9.688 20.616V17.232C9.688 16.48 9.432 15.936 8.92 15.6C8.584 15.408 8.272 15.384 7.984 15.528C7.792 15.624 7.64 15.584 7.528 15.408C7.448 15.216 7.488 15.064 7.648 14.952L13.48 11.688Z" fill="#F5EEC2" style="fill:#F5EEC2;fill:color(display-p3 0.9608 0.9333 0.7608);fill-opacity:1;"/>
</g>
<defs>
<filter id="filter0_d_218_8" x="0" y="0" width="44" height="44" filterUnits="userSpaceOnUse" color-interpolation-filters="sRGB">
<feFlood flood-opacity="0" result="BackgroundImageFix"/>
<feColorMatrix in="SourceAlpha" type="matrix" values="0 0 0 0 0 0 0 0 0 0 0 0 0 0 0 0 0 0 127 0" result="hardAlpha"/>
<feOffset dy="4"/>
<feGaussianBlur stdDeviation="2"/>
<feComposite in2="hardAlpha" operator="out"/>
<feColorMatrix type="matrix" values="0 0 0 0 0 0 0 0 0 0 0 0 0 0 0 0 0 0 0.25 0"/>
<feBlend mode="normal" in2="BackgroundImageFix" result="effect1_dropShadow_218_8"/>
<feBlend mode="normal" in="SourceGraphic" in2="effect1_dropShadow_218_8" result="shape"/>
</filter>
<filter id="filter1_i_218_8" x="4" y="0" width="36" height="40" filterUnits="userSpaceOnUse" color-interpolation-filters="sRGB">
<feFlood flood-opacity="0" result="BackgroundImageFix"/>
<feBlend mode="normal" in="SourceGraphic" in2="BackgroundImageFix" result="shape"/>
<feColorMatrix in="SourceAlpha" type="matrix" values="0 0 0 0 0 0 0 0 0 0 0 0 0 0 0 0 0 0 127 0" result="hardAlpha"/>
<feOffset dy="4"/>
<feGaussianBlur stdDeviation="2"/>
<feComposite in2="hardAlpha" operator="arithmetic" k2="-1" k3="1"/>
<feColorMatrix type="matrix" values="0 0 0 0 0.596078 0 0 0 0 0.364706 0 0 0 0 0.380392 0 0 0 1 0"/>
<feBlend mode="normal" in2="shape" result="effect1_innerShadow_218_8"/>
</filter>
<linearGradient id="paint0_linear_218_8" x1="22" y1="0" x2="22" y2="36" gradientUnits="userSpaceOnUse">
<stop stop-color="#B38379" style="stop-color:#B38379;stop-color:color(display-p3 0.7020 0.5137 0.4745);stop-opacity:1;"/>
<stop offset="1" stop-color="#985D61" style="stop-color:#985D61;stop-color:color(display-p3 0.5961 0.3647 0.3804);stop-opacity:1;"/>
</linearGradient>
</defs>
</svg>
